Chinese Zodiac 2012 HDTS NEW READNFO XviD-DEYA


IMDB: http://www.imdb.com/title/tt1424310/


General
Complete name : C:UsersAdminDesktopChinese.Zodiac.2012.HDTS.NEW.XviD-DEYA
Format : AVI
Format/Info : Audio Video Interleave
File size : 1.69 GiB
Duration : 1h 53mn
Overall bit rate : 2 135 Kbps

Video
ID : 0
Format : MPEG-4 Visual
Format profile : Advanced Simple@L5
Format settings, BVOP : 2
Format settings, QPel : No
Format settings, GMC : No warppoints
Format settings, Matrix : Default (H.263)
Muxing mode : Packed bitstream
Codec ID : XVID
Codec ID/Hint : XviD
Duration : 1h 53mn
Bit rate : 1 999 Kbps
Width : 688 pixels
Height : 288 pixels
Display aspect ratio : 2.40:1
Frame rate : 23.976 fps
Color space : YUV
Chroma subsampling : 4:2:0
Bit depth : 8 bits
Scan type : Progressive
Compression mode : Lossy
Bits/(Pixel*Frame) : 0.421
Stream size : 1.58 GiB (94%)
Writing library : XviD 64

Audio
ID : 1
Format : AC-3
Format/Info : Audio Coding 3
Mode extension : CM (complete main)
Codec ID : 2000
Duration : 1h 53mn
Bit rate mode : Constant
Bit rate : 128 Kbps
Channel(s) : 2 channels
Channel positions : Front: L R
Sampling rate : 48.0 KHz
Bit depth : 16 bits
Compression mode : Lossy
Stream size : 104 MiB (6%)
Alignment : Aligned on interleaves
Interleave, duration : 64 ms (1.53 video frames)
Interleave, preload duration : 192 ms
Title : Chinese Zodiac.track_2


SOURCE: DVDSCR DWR [thx]


SUBTiTLES: HC ENGLiSH & CHiNESE WHEN NEEDED AND THOUGH-OUT 


NOTES: thought i wud do this one again as a different rip from
the source dropped much better Q again now .. no jumpy fightin
scenes and runs nice and smooth plus it was in a mkv container
this time and no shite RVMB lol it was tagged dvdscr but im
going with what i believe to be true nd thats a HDTS but very
clear proply best cam i seen for few years to be honest enjoy.


Poster:

 
http://imgon.net/di-JVPM.jpg


Screenshots:

 
http://imgon.net/di-8XRP.png

 
http://imgon.net/di-EDLM.png

 
http://imgon.net/di-FKHJ.png


SEED AND ENJOY!